<svg width="11" height="11" viewBox="0 0 11 11" fill="none" xmlns="http://www.w3.org/2000/svg">
<path d="M2.06301 5.271C2.04023 5.271 1.99426 5.271 1.97148 5.29377C1.87953 5.31654 1.83398 5.4085 1.83398 5.50002V7.10404C1.83398 8.13529 2.86523 9.16654 3.89648 9.16654H4.58398V7.70002L2.22327 5.33975C2.17773 5.29377 2.13175 5.271 2.063 5.271L2.06301 5.271Z" fill="#3C3B39"/>
<path d="M9.0296 5.29377C9.00682 5.271 8.96085 5.271 8.93807 5.271C8.86932 5.271 8.82334 5.29377 8.7778 5.33975L5.95905 8.1585V5.91252C8.9153 5.47725 7.31128 1.971 7.31128 1.971C7.28808 1.90225 7.19655 1.8335 7.1046 1.8335C7.01308 1.8335 6.92112 1.90225 6.89835 1.99377L6.30237 3.04779L5.7064 1.99377C5.68405 1.90224 5.59209 1.8335 5.50057 1.8335C5.40905 1.8335 5.31709 1.90225 5.29432 1.99377L4.69834 3.04779L4.10236 1.99377C4.07959 1.90224 3.98806 1.8335 3.89654 1.8335C3.80502 1.8335 3.71306 1.90225 3.69029 1.99377C3.69029 1.99377 2.08627 5.50002 5.04252 5.93529L5.04209 9.16654H7.10459C8.13584 9.16654 9.16709 8.13529 9.16709 7.10404V5.50002C9.16709 5.40849 9.12155 5.31654 9.02959 5.29377L9.0296 5.29377Z" fill="#3C3B39"/>
</svg>
