<svg width="14" height="14" viewBox="0 0 14 14" fill="none" xmlns="http://www.w3.org/2000/svg">
<path d="M11.6665 6.271C11.6665 5.86248 11.3454 5.54202 10.9375 5.54202L8.74999 5.54147C8.6335 5.54147 8.22499 5.36647 8.54601 4.87045C8.74999 4.49147 8.74999 3.06193 8.74999 3.06193C8.74999 2.65396 8.42897 2.3335 8.02101 2.3335C7.61249 2.3335 7.29148 2.65397 7.29148 3.06248C7.29148 5.19146 5.25 5.8335 5.25 5.8335V9.62498C6.18352 9.946 6.41648 10.5 7.58352 10.5H9.77102C10.1795 10.5 10.5 10.179 10.5 9.771C10.5 9.596 10.4415 9.44998 10.354 9.3335C10.7625 9.3335 11.083 9.01248 11.083 8.60452C11.083 8.42952 11.0244 8.25452 10.908 8.1085C11.1994 7.99201 11.3744 7.72952 11.3744 7.43748C11.3744 7.26248 11.3159 7.08748 11.1994 6.94146C11.4625 6.85396 11.6665 6.59146 11.6665 6.27098V6.271Z" fill="#6C7172"/>
<path d="M3.79194 5.25H2.33398V10.2085H3.7925C4.28852 10.2085 4.6675 9.8 4.6675 9.33352L4.66696 6.125C4.66696 5.62898 4.28798 5.25 3.79196 5.25H3.79194Z" fill="#6C7172"/>
</svg>
