<svg width="14" height="14" viewBox="0 0 14 14" fill="none" xmlns="http://www.w3.org/2000/svg">
<path d="M2.33353 7.729C2.33353 8.13752 2.65455 8.45798 3.06251 8.45798L5.25001 8.45853C5.3665 8.45853 5.77501 8.63353 5.45399 9.12955C5.25001 9.50853 5.25001 10.9381 5.25001 10.9381C5.25001 11.346 5.57103 11.6665 5.97899 11.6665C6.38751 11.6665 6.70852 11.346 6.70852 10.9375C6.70852 8.80854 8.75 8.1665 8.75 8.1665L8.75 4.37502C7.81648 4.054 7.58352 3.50002 6.41648 3.50002L4.22898 3.50002C3.82046 3.50002 3.5 3.82104 3.5 4.229C3.5 4.404 3.55852 4.55002 3.64602 4.6665C3.2375 4.6665 2.91704 4.98752 2.91704 5.39548C2.91704 5.57048 2.97556 5.74548 3.09204 5.8915C2.80056 6.00799 2.62556 6.27048 2.62556 6.56252C2.62556 6.73752 2.68408 6.91252 2.80056 7.05854C2.53751 7.14604 2.33353 7.40854 2.33353 7.72902L2.33353 7.729Z" fill="#6C7172"/>
<path d="M10.2081 8.75L11.666 8.75L11.666 3.79148L10.2075 3.79148C9.71148 3.79148 9.3325 4.2 9.3325 4.66648L9.33304 7.875C9.33304 8.37102 9.71202 8.75 10.208 8.75L10.2081 8.75Z" fill="#6C7172"/>
</svg>
