<svg width="45" height="34" viewBox="0 0 45 34" fill="none" xmlns="http://www.w3.org/2000/svg">
<path d="M19.6875 8.5H37.9688M19.6875 8.5C19.6875 9.06358 19.3912 9.60409 18.8637 10.0026C18.3363 10.4011 17.6209 10.625 16.875 10.625C16.1291 10.625 15.4137 10.4011 14.8863 10.0026C14.3588 9.60409 14.0625 9.06358 14.0625 8.5M19.6875 8.5C19.6875 7.93641 19.3912 7.39591 18.8637 6.9974C18.3363 6.59888 17.6209 6.375 16.875 6.375C16.1291 6.375 15.4137 6.59888 14.8863 6.9974C14.3588 7.39591 14.0625 7.93641 14.0625 8.5M14.0625 8.5H7.03125M19.6875 25.5H37.9688M19.6875 25.5C19.6875 26.0636 19.3912 26.6041 18.8637 27.0026C18.3363 27.4011 17.6209 27.625 16.875 27.625C16.1291 27.625 15.4137 27.4011 14.8863 27.0026C14.3588 26.6041 14.0625 26.0636 14.0625 25.5M19.6875 25.5C19.6875 24.9364 19.3912 24.3959 18.8637 23.9974C18.3363 23.5989 17.6209 23.375 16.875 23.375C16.1291 23.375 15.4137 23.5989 14.8863 23.9974C14.3588 24.3959 14.0625 24.9364 14.0625 25.5M14.0625 25.5H7.03125M30.9375 17H37.9688M30.9375 17C30.9375 17.5636 30.6412 18.1041 30.1137 18.5026C29.5863 18.9011 28.8709 19.125 28.125 19.125C27.3791 19.125 26.6637 18.9011 26.1363 18.5026C25.6088 18.1041 25.3125 17.5636 25.3125 17M30.9375 17C30.9375 16.4364 30.6412 15.8959 30.1137 15.4974C29.5863 15.0989 28.8709 14.875 28.125 14.875C27.3791 14.875 26.6637 15.0989 26.1363 15.4974C25.6088 15.8959 25.3125 16.4364 25.3125 17M25.3125 17H7.03125" stroke="black" stroke-width="1.5" stroke-linecap="round" stroke-linejoin="round"/>
</svg>
