<svg width="58" height="58" viewBox="0 0 58 58" fill="none" xmlns="http://www.w3.org/2000/svg">
<rect width="58" height="58" rx="29" fill="#F5C527"/>
<path d="M19.084 28.0583C19.084 27.0492 19.084 26.5446 19.3056 26.1139C19.5273 25.6832 19.9379 25.3899 20.759 24.8034L27.8382 19.7468C28.3995 19.3459 28.6802 19.1454 29.0007 19.1454C29.3211 19.1454 29.6018 19.3459 30.1631 19.7468L37.2423 24.8034C38.0634 25.3899 38.474 25.6832 38.6957 26.1139C38.9173 26.5446 38.9173 27.0492 38.9173 28.0583V36.7498C38.9173 37.6926 38.9173 38.1641 38.6244 38.4569C38.3315 38.7498 37.8601 38.7498 36.9173 38.7498H21.084C20.1412 38.7498 19.6698 38.7498 19.3769 38.4569C19.084 38.1641 19.084 37.6926 19.084 36.7498V28.0583Z" fill="white"/>
<path d="M16.25 26.8031C16.25 27.07 16.25 27.2034 16.3341 27.2446C16.4182 27.2857 16.5235 27.2038 16.7342 27.0399L27.7721 18.4549C28.362 17.9961 28.6569 17.7667 29 17.7667C29.3431 17.7667 29.638 17.9961 30.2279 18.4549L41.2658 27.0399C41.4765 27.2038 41.5818 27.2857 41.6659 27.2446C41.75 27.2034 41.75 27.07 41.75 26.8031V25.5613C41.75 25.081 41.75 24.8408 41.6483 24.6329C41.5466 24.425 41.357 24.2775 40.9779 23.9826L30.2279 15.6215C29.638 15.1628 29.3431 14.9334 29 14.9334C28.6569 14.9334 28.362 15.1628 27.7721 15.6215L17.0221 23.9826C16.643 24.2775 16.4534 24.425 16.3517 24.6329C16.25 24.8408 16.25 25.081 16.25 25.5613V26.8031Z" fill="white"/>
<path d="M30.5423 30.25H27.459C26.3544 30.25 25.459 31.1454 25.459 32.25V38.6C25.459 38.6828 25.5261 38.75 25.609 38.75H32.3923C32.4752 38.75 32.5423 38.6828 32.5423 38.6V32.25C32.5423 31.1454 31.6469 30.25 30.5423 30.25Z" fill="#F5C527"/>
<rect x="34.666" y="16.0835" width="2.83333" height="5.66667" rx="0.5" fill="white"/>
</svg>
